<svg width="27" height="27" viewBox="0 0 27 27" fill="none" xmlns="http://www.w3.org/2000/svg">
<rect x="0.677734" y="0.402344" width="26" height="26" rx="13" fill="#343961"/>
<g clip-path="url(#clip0_6588_24715)">
<path fill-rule="evenodd" clip-rule="evenodd" d="M13.6797 20.0586C17.4076 20.0586 20.4297 17.0365 20.4297 13.3086C20.4297 9.58067 17.4076 6.55859 13.6797 6.55859C9.95177 6.55859 6.92969 9.58067 6.92969 13.3086C6.92969 17.0365 9.95177 20.0586 13.6797 20.0586ZM10.5137 12.5586C10.0995 12.5586 9.76367 12.8944 9.76367 13.3086C9.76367 13.7228 10.0995 14.0586 10.5137 14.0586L16.8457 14.0586C17.2599 14.0586 17.5957 13.7228 17.5957 13.3086C17.5957 12.8944 17.2599 12.5586 16.8457 12.5586L10.5137 12.5586Z" fill="#9309E2"/>
</g>
<defs>
<clipPath id="clip0_6588_24715">
<rect width="15" height="16" fill="white" transform="matrix(1 0 0 -1 6.17773 21.4023)"/>
</clipPath>
</defs>
</svg>
